<svg class="marks" width="755" height="522" xmlns="http://www.w3.org/2000/svg"><g transform="translate(46,6)"><g id="g19" class="type-group"><g transform="translate(0,0)"><rect class="background" width="703" height="468" style="pointer-events: none; fill: none;"></rect><g id="g20" class="type-group"><g transform="translate(0,468)"><rect class="background" width="0" height="0" style="pointer-events: none; fill: none;"></rect><g id="g21" class="type-rule" style="pointer-events: none;"><line x1="59.64990328820013" y1="-468" x2="59.64990328820013" y2="0" style="fill: none; stroke: #d8d8d8; stroke-width: 1px; opacity: 1;"></line><line x1="127.63829787233963" y1="-468" x2="127.63829787233963" y2="0" style="fill: none; stroke: #d8d8d8; stroke-width: 1px; opacity: 1;"></line><line x1="195.62669245647913" y1="-468" x2="195.62669245647913" y2="0" style="fill: none; stroke: #d8d8d8; stroke-width: 1px; opacity: 1;"></line><line x1="263.6150870406187" y1="-468" x2="263.6150870406187" y2="0" style="fill: none; stroke: #d8d8d8; stroke-width: 1px; opacity: 1;"></line><line x1="331.60348162475816" y1="-468" x2="331.60348162475816" y2="0" style="fill: none; stroke: #d8d8d8; stroke-width: 1px; opacity: 1;"></line><line x1="399.5918762088977" y1="-468" x2="399.5918762088977" y2="0" style="fill: none; stroke: #d8d8d8; stroke-width: 1px; opacity: 1;"></line><line x1="467.58027079303713" y1="-468" x2="467.58027079303713" y2="0" style="fill: none; stroke: #d8d8d8; stroke-width: 1px; opacity: 1;"></line><line x1="535.5686653771767" y1="-468" x2="535.5686653771767" y2="0" style="fill: none; stroke: #d8d8d8; stroke-width: 1px; opacity: 1;"></line><line x1="603.5570599613161" y1="-468" x2="603.5570599613161" y2="0" style="fill: none; stroke: #d8d8d8; stroke-width: 1px; opacity: 1;"></line><line x1="671.5454545454556" y1="-468" x2="671.5454545454556" y2="0" style="fill: none; stroke: #d8d8d8; stroke-width: 1px; opacity: 1;"></line></g><g id="g22" class="type-rule" style="pointer-events: none;"><line x1="59.64990328820013" y1="0" x2="59.64990328820013" y2="5" style="fill: none; stroke: #000000; stroke-width: 1px; opacity: 1;"></line><line x1="127.63829787233963" y1="0" x2="127.63829787233963" y2="5" style="fill: none; stroke: #000000; stroke-width: 1px; opacity: 1;"></line><line x1="195.62669245647913" y1="0" x2="195.62669245647913" y2="5" style="fill: none; stroke: #000000; stroke-width: 1px; opacity: 1;"></line><line x1="263.6150870406187" y1="0" x2="263.6150870406187" y2="5" style="fill: none; stroke: #000000; stroke-width: 1px; opacity: 1;"></line><line x1="331.60348162475816" y1="0" x2="331.60348162475816" y2="5" style="fill: none; stroke: #000000; stroke-width: 1px; opacity: 1;"></line><line x1="399.5918762088977" y1="0" x2="399.5918762088977" y2="5" style="fill: none; stroke: #000000; stroke-width: 1px; opacity: 1;"></line><line x1="467.58027079303713" y1="0" x2="467.58027079303713" y2="5" style="fill: none; stroke: #000000; stroke-width: 1px; opacity: 1;"></line><line x1="535.5686653771767" y1="0" x2="535.5686653771767" y2="5" style="fill: none; stroke: #000000; stroke-width: 1px; opacity: 1;"></line><line x1="603.5570599613161" y1="0" x2="603.5570599613161" y2="5" style="fill: none; stroke: #000000; stroke-width: 1px; opacity: 1;"></line><line x1="671.5454545454556" y1="0" x2="671.5454545454556" y2="5" style="fill: none; stroke: #000000; stroke-width: 1px; opacity: 1;"></line></g><g id="g23" class="type-rule" style="pointer-events: none;"><line x1="5.259187620888529" y1="0" x2="5.259187620888529" y2="3" style="fill: none; stroke: #000000; stroke-width: 1px; opacity: 1;"></line><line x1="18.856866537716428" y1="0" x2="18.856866537716428" y2="3" style="fill: none; stroke: #000000; stroke-width: 1px; opacity: 1;"></line><line x1="32.45454545454433" y1="0" x2="32.45454545454433" y2="3" style="fill: none; stroke: #000000; stroke-width: 1px; opacity: 1;"></line><line x1="46.052224371372226" y1="0" x2="46.052224371372226" y2="3" style="fill: none; stroke: #000000; stroke-width: 1px; opacity: 1;"></line><line x1="73.24758220502804" y1="0" x2="73.24758220502804" y2="3" style="fill: none; stroke: #000000; stroke-width: 1px; opacity: 1;"></line><line x1="86.84526112185594" y1="0" x2="86.84526112185594" y2="3" style="fill: none; stroke: #000000; stroke-width: 1px; opacity: 1;"></line><line x1="100.44294003868383" y1="0" x2="100.44294003868383" y2="3" style="fill: none; stroke: #000000; stroke-width: 1px; opacity: 1;"></line><line x1="114.04061895551173" y1="0" x2="114.04061895551173" y2="3" style="fill: none; stroke: #000000; stroke-width: 1px; opacity: 1;"></line><line x1="141.23597678916752" y1="0" x2="141.23597678916752" y2="3" style="fill: none; stroke: #000000; stroke-width: 1px; opacity: 1;"></line><line x1="154.83365570599543" y1="0" x2="154.83365570599543" y2="3" style="fill: none; stroke: #000000; stroke-width: 1px; opacity: 1;"></line><line x1="168.43133462282333" y1="0" x2="168.43133462282333" y2="3" style="fill: none; stroke: #000000; stroke-width: 1px; opacity: 1;"></line><line x1="182.02901353965123" y1="0" x2="182.02901353965123" y2="3" style="fill: none; stroke: #000000; stroke-width: 1px; opacity: 1;"></line><line x1="209.22437137330704" y1="0" x2="209.22437137330704" y2="3" style="fill: none; stroke: #000000; stroke-width: 1px; opacity: 1;"></line><line x1="222.82205029013494" y1="0" x2="222.82205029013494" y2="3" style="fill: none; stroke: #000000; stroke-width: 1px; opacity: 1;"></line><line x1="236.41972920696284" y1="0" x2="236.41972920696284" y2="3" style="fill: none; stroke: #000000; stroke-width: 1px; opacity: 1;"></line><line x1="250.01740812379074" y1="0" x2="250.01740812379074" y2="3" style="fill: none; stroke: #000000; stroke-width: 1px; opacity: 1;"></line><line x1="277.21276595744655" y1="0" x2="277.21276595744655" y2="3" style="fill: none; stroke: #000000; stroke-width: 1px; opacity: 1;"></line><line x1="290.8104448742744" y1="0" x2="290.8104448742744" y2="3" style="fill: none; stroke: #000000; stroke-width: 1px; opacity: 1;"></line><line x1="304.40812379110235" y1="0" x2="304.40812379110235" y2="3" style="fill: none; stroke: #000000; stroke-width: 1px; opacity: 1;"></line><line x1="318.00580270793023" y1="0" x2="318.00580270793023" y2="3" style="fill: none; stroke: #000000; stroke-width: 1px; opacity: 1;"></line><line x1="345.20116054158603" y1="0" x2="345.20116054158603" y2="3" style="fill: none; stroke: #000000; stroke-width: 1px; opacity: 1;"></line><line x1="358.7988394584139" y1="0" x2="358.7988394584139" y2="3" style="fill: none; stroke: #000000; stroke-width: 1px; opacity: 1;"></line><line x1="372.39651837524184" y1="0" x2="372.39651837524184" y2="3" style="fill: none; stroke: #000000; stroke-width: 1px; opacity: 1;"></line><line x1="385.99419729206977" y1="0" x2="385.99419729206977" y2="3" style="fill: none; stroke: #000000; stroke-width: 1px; opacity: 1;"></line><line x1="413.1895551257255" y1="0" x2="413.1895551257255" y2="3" style="fill: none; stroke: #000000; stroke-width: 1px; opacity: 1;"></line><line x1="426.78723404255345" y1="0" x2="426.78723404255345" y2="3" style="fill: none; stroke: #000000; stroke-width: 1px; opacity: 1;"></line><line x1="440.3849129593814" y1="0" x2="440.3849129593814" y2="3" style="fill: none; stroke: #000000; stroke-width: 1px; opacity: 1;"></line><line x1="453.9825918762092" y1="0" x2="453.9825918762092" y2="3" style="fill: none; stroke: #000000; stroke-width: 1px; opacity: 1;"></line><line x1="481.17794970986506" y1="0" x2="481.17794970986506" y2="3" style="fill: none; stroke: #000000; stroke-width: 1px; opacity: 1;"></line><line x1="494.775628626693" y1="0" x2="494.775628626693" y2="3" style="fill: none; stroke: #000000; stroke-width: 1px; opacity: 1;"></line><line x1="508.3733075435208" y1="0" x2="508.3733075435208" y2="3" style="fill: none; stroke: #000000; stroke-width: 1px; opacity: 1;"></line><line x1="521.9709864603487" y1="0" x2="521.9709864603487" y2="3" style="fill: none; stroke: #000000; stroke-width: 1px; opacity: 1;"></line><line x1="549.1663442940046" y1="0" x2="549.1663442940046" y2="3" style="fill: none; stroke: #000000; stroke-width: 1px; opacity: 1;"></line><line x1="562.7640232108324" y1="0" x2="562.7640232108324" y2="3" style="fill: none; stroke: #000000; stroke-width: 1px; opacity: 1;"></line><line x1="576.3617021276604" y1="0" x2="576.3617021276604" y2="3" style="fill: none; stroke: #000000; stroke-width: 1px; opacity: 1;"></line><line x1="589.9593810444883" y1="0" x2="589.9593810444883" y2="3" style="fill: none; stroke: #000000; stroke-width: 1px; opacity: 1;"></line><line x1="617.154738878144" y1="0" x2="617.154738878144" y2="3" style="fill: none; stroke: #000000; stroke-width: 1px; opacity: 1;"></line><line x1="630.752417794972" y1="0" x2="630.752417794972" y2="3" style="fill: none; stroke: #000000; stroke-width: 1px; opacity: 1;"></line><line x1="644.3500967117999" y1="0" x2="644.3500967117999" y2="3" style="fill: none; stroke: #000000; stroke-width: 1px; opacity: 1;"></line><line x1="657.9477756286277" y1="0" x2="657.9477756286277" y2="3" style="fill: none; stroke: #000000; stroke-width: 1px; opacity: 1;"></line><line x1="685.1431334622836" y1="0" x2="685.1431334622836" y2="3" style="fill: none; stroke: #000000; stroke-width: 1px; opacity: 1;"></line><line x1="698.7408123791114" y1="0" x2="698.7408123791114" y2="3" style="fill: none; stroke: #000000; stroke-width: 1px; opacity: 1;"></line></g><g id="g24" class="type-text"><text x="59.64990328820013" y="8" text-anchor="middle" dy=".9em" style="font-style: normal; font-variant: normal; font-weight: normal; font-size: 11px; line-height: normal; font-family: sans-serif; fill: #000000; opacity: 1;">1970</text><text x="127.63829787233963" y="8" text-anchor="middle" dy=".9em" style="font-style: normal; font-variant: normal; font-weight: normal; font-size: 11px; line-height: normal; font-family: sans-serif; fill: #000000; opacity: 1;">1975</text><text x="195.62669245647913" y="8" text-anchor="middle" dy=".9em" style="font-style: normal; font-variant: normal; font-weight: normal; font-size: 11px; line-height: normal; font-family: sans-serif; fill: #000000; opacity: 1;">1980</text><text x="263.6150870406187" y="8" text-anchor="middle" dy=".9em" style="font-style: normal; font-variant: normal; font-weight: normal; font-size: 11px; line-height: normal; font-family: sans-serif; fill: #000000; opacity: 1;">1985</text><text x="331.60348162475816" y="8" text-anchor="middle" dy=".9em" style="font-style: normal; font-variant: normal; font-weight: normal; font-size: 11px; line-height: normal; font-family: sans-serif; fill: #000000; opacity: 1;">1990</text><text x="399.5918762088977" y="8" text-anchor="middle" dy=".9em" style="font-style: normal; font-variant: normal; font-weight: normal; font-size: 11px; line-height: normal; font-family: sans-serif; fill: #000000; opacity: 1;">1995</text><text x="467.58027079303713" y="8" text-anchor="middle" dy=".9em" style="font-style: normal; font-variant: normal; font-weight: normal; font-size: 11px; line-height: normal; font-family: sans-serif; fill: #000000; opacity: 1;">2000</text><text x="535.5686653771767" y="8" text-anchor="middle" dy=".9em" style="font-style: normal; font-variant: normal; font-weight: normal; font-size: 11px; line-height: normal; font-family: sans-serif; fill: #000000; opacity: 1;">2005</text><text x="603.5570599613161" y="8" text-anchor="middle" dy=".9em" style="font-style: normal; font-variant: normal; font-weight: normal; font-size: 11px; line-height: normal; font-family: sans-serif; fill: #000000; opacity: 1;">2010</text><text x="671.5454545454556" y="8" text-anchor="middle" dy=".9em" style="font-style: normal; font-variant: normal; font-weight: normal; font-size: 11px; line-height: normal; font-family: sans-serif; fill: #000000; opacity: 1;">2015</text></g><g id="g25" class="type-path" style="pointer-events: none;"><path transform="translate(0.5,0.5)" d="M0,5V0H703V5" style="fill: none; stroke: #000000; stroke-width: 1px;"></path></g><g id="g26" class="type-text"><text x="351" y="35" text-anchor="middle" dy=".35em" style="font-weight: bold; font-style: normal; font-variant: normal; font-size: 11px; line-height: normal; font-family: sans-serif; fill: #000000;">Year of graduation</text></g></g></g><g id="g27" class="type-group"><g transform="translate(0,0)"><rect class="background" width="0" height="0" style="pointer-events: none; fill: none;"></rect><g id="g28" class="type-rule" style="pointer-events: none;"><line x1="0" y1="463.32914396049335" x2="703" y2="463.32914396049335" style="fill: none; stroke: #d8d8d8; stroke-width: 1px; opacity: 1;"></line><line x1="0" y1="419.1735022917168" x2="703" y2="419.1735022917168" style="fill: none; stroke: #d8d8d8; stroke-width: 1px; opacity: 1;"></line><line x1="0" y1="375.0178606229402" x2="703" y2="375.0178606229402" style="fill: none; stroke: #d8d8d8; stroke-width: 1px; opacity: 1;"></line><line x1="0" y1="330.86221895416355" x2="703" y2="330.86221895416355" style="fill: none; stroke: #d8d8d8; stroke-width: 1px; opacity: 1;"></line><line x1="0" y1="286.706577285387" x2="703" y2="286.706577285387" style="fill: none; stroke: #d8d8d8; stroke-width: 1px; opacity: 1;"></line><line x1="0" y1="242.55093561661042" x2="703" y2="242.55093561661042" style="fill: none; stroke: #d8d8d8; stroke-width: 1px; opacity: 1;"></line><line x1="0" y1="198.39529394783386" x2="703" y2="198.39529394783386" style="fill: none; stroke: #d8d8d8; stroke-width: 1px; opacity: 1;"></line><line x1="0" y1="154.23965227905728" x2="703" y2="154.23965227905728" style="fill: none; stroke: #d8d8d8; stroke-width: 1px; opacity: 1;"></line><line x1="0" y1="110.08401061028071" x2="703" y2="110.08401061028071" style="fill: none; stroke: #d8d8d8; stroke-width: 1px; opacity: 1;"></line><line x1="0" y1="65.92836894150409" x2="703" y2="65.92836894150409" style="fill: none; stroke: #d8d8d8; stroke-width: 1px; opacity: 1;"></line><line x1="0" y1="21.772727272727515" x2="703" y2="21.772727272727515" style="fill: none; stroke: #d8d8d8; stroke-width: 1px; opacity: 1;"></line></g><g id="g29" class="type-rule" style="pointer-events: none;"><line x1="-6" y1="463.32914396049335" x2="0" y2="463.32914396049335" style="fill: none; stroke: #000000; stroke-width: 1px; opacity: 1;"></line><line x1="-6" y1="419.1735022917168" x2="0" y2="419.1735022917168" style="fill: none; stroke: #000000; stroke-width: 1px; opacity: 1;"></line><line x1="-6" y1="375.0178606229402" x2="0" y2="375.0178606229402" style="fill: none; stroke: #000000; stroke-width: 1px; opacity: 1;"></line><line x1="-6" y1="330.86221895416355" x2="0" y2="330.86221895416355" style="fill: none; stroke: #000000; stroke-width: 1px; opacity: 1;"></line><line x1="-6" y1="286.706577285387" x2="0" y2="286.706577285387" style="fill: none; stroke: #000000; stroke-width: 1px; opacity: 1;"></line><line x1="-6" y1="242.55093561661042" x2="0" y2="242.55093561661042" style="fill: none; stroke: #000000; stroke-width: 1px; opacity: 1;"></line><line x1="-6" y1="198.39529394783386" x2="0" y2="198.39529394783386" style="fill: none; stroke: #000000; stroke-width: 1px; opacity: 1;"></line><line x1="-6" y1="154.23965227905728" x2="0" y2="154.23965227905728" style="fill: none; stroke: #000000; stroke-width: 1px; opacity: 1;"></line><line x1="-6" y1="110.08401061028071" x2="0" y2="110.08401061028071" style="fill: none; stroke: #000000; stroke-width: 1px; opacity: 1;"></line><line x1="-6" y1="65.92836894150409" x2="0" y2="65.92836894150409" style="fill: none; stroke: #000000; stroke-width: 1px; opacity: 1;"></line><line x1="-6" y1="21.772727272727515" x2="0" y2="21.772727272727515" style="fill: none; stroke: #000000; stroke-width: 1px; opacity: 1;"></line></g><g id="g30" class="type-rule" style="pointer-events: none;"></g><g id="g31" class="type-text"><text x="-9" y="463.32914396049335" text-anchor="end" dy=".35em" style="font-style: normal; font-variant: normal; font-weight: normal; font-size: 11px; line-height: normal; font-family: sans-serif; fill: #000000; opacity: 1;">-2</text><text x="-9" y="419.1735022917168" text-anchor="end" dy=".35em" style="font-style: normal; font-variant: normal; font-weight: normal; font-size: 11px; line-height: normal; font-family: sans-serif; fill: #000000; opacity: 1;">0</text><text x="-9" y="375.0178606229402" text-anchor="end" dy=".35em" style="font-style: normal; font-variant: normal; font-weight: normal; font-size: 11px; line-height: normal; font-family: sans-serif; fill: #000000; opacity: 1;">2</text><text x="-9" y="330.86221895416355" text-anchor="end" dy=".35em" style="font-style: normal; font-variant: normal; font-weight: normal; font-size: 11px; line-height: normal; font-family: sans-serif; fill: #000000; opacity: 1;">4</text><text x="-9" y="286.706577285387" text-anchor="end" dy=".35em" style="font-style: normal; font-variant: normal; font-weight: normal; font-size: 11px; line-height: normal; font-family: sans-serif; fill: #000000; opacity: 1;">6</text><text x="-9" y="242.55093561661042" text-anchor="end" dy=".35em" style="font-style: normal; font-variant: normal; font-weight: normal; font-size: 11px; line-height: normal; font-family: sans-serif; fill: #000000; opacity: 1;">8</text><text x="-9" y="198.39529394783386" text-anchor="end" dy=".35em" style="font-style: normal; font-variant: normal; font-weight: normal; font-size: 11px; line-height: normal; font-family: sans-serif; fill: #000000; opacity: 1;">10</text><text x="-9" y="154.23965227905728" text-anchor="end" dy=".35em" style="font-style: normal; font-variant: normal; font-weight: normal; font-size: 11px; line-height: normal; font-family: sans-serif; fill: #000000; opacity: 1;">12</text><text x="-9" y="110.08401061028071" text-anchor="end" dy=".35em" style="font-style: normal; font-variant: normal; font-weight: normal; font-size: 11px; line-height: normal; font-family: sans-serif; fill: #000000; opacity: 1;">14</text><text x="-9" y="65.92836894150409" text-anchor="end" dy=".35em" style="font-style: normal; font-variant: normal; font-weight: normal; font-size: 11px; line-height: normal; font-family: sans-serif; fill: #000000; opacity: 1;">16</text><text x="-9" y="21.772727272727515" text-anchor="end" dy=".35em" style="font-style: normal; font-variant: normal; font-weight: normal; font-size: 11px; line-height: normal; font-family: sans-serif; fill: #000000; opacity: 1;">18</text></g><g id="g32" class="type-path" style="pointer-events: none;"><path transform="translate(0.5,0.5)" d="M-6,0H0V468H-6" style="fill: none; stroke: #000000; stroke-width: 1px;"></path></g><g id="g33" class="type-text"><text x="-35" y="234" text-anchor="middle" transform="rotate(-90 -35,234)" dy=".35em" style="font-weight: bold; font-style: normal; font-variant: normal; font-size: 11px; line-height: normal; font-family: sans-serif; fill: #000000;">Number of graduates</text></g></g></g><g id="g34" class="type-symbol"><path transform="translate(31.954545454544327,396.5956814573285)" d="M0,3.989422804014327A3.989422804014327,3.989422804014327 0 1,1 0,-3.989422804014327A3.989422804014327,3.989422804014327 0 1,1 0,3.989422804014327Z" style="fill: #000000;"></path><path transform="translate(45.552224371372226,374.5178606229402)" d="M0,3.989422804014327A3.989422804014327,3.989422804014327 0 1,1 0,-3.989422804014327A3.989422804014327,3.989422804014327 0 1,1 0,3.989422804014327Z" style="fill: #000000;"></path><path transform="translate(59.14990328820013,396.5956814573285)" d="M0,3.989422804014327A3.989422804014327,3.989422804014327 0 1,1 0,-3.989422804014327A3.989422804014327,3.989422804014327 0 1,1 0,3.989422804014327Z" style="fill: #000000;"></path><path transform="translate(72.74758220502804,352.44003978855187)" d="M0,3.989422804014327A3.989422804014327,3.989422804014327 0 1,1 0,-3.989422804014327A3.989422804014327,3.989422804014327 0 1,1 0,3.989422804014327Z" style="fill: #000000;"></path><path transform="translate(86.34526112185594,374.5178606229402)" d="M0,3.989422804014327A3.989422804014327,3.989422804014327 0 1,1 0,-3.989422804014327A3.989422804014327,3.989422804014327 0 1,1 0,3.989422804014327Z" style="fill: #000000;"></path><path transform="translate(99.94294003868383,352.44003978855187)" d="M0,3.989422804014327A3.989422804014327,3.989422804014327 0 1,1 0,-3.989422804014327A3.989422804014327,3.989422804014327 0 1,1 0,3.989422804014327Z" style="fill: #000000;"></path><path transform="translate(113.54061895551173,374.5178606229402)" d="M0,3.989422804014327A3.989422804014327,3.989422804014327 0 1,1 0,-3.989422804014327A3.989422804014327,3.989422804014327 0 1,1 0,3.989422804014327Z" style="fill: #000000;"></path><path transform="translate(127.13829787233963,352.44003978855187)" d="M0,3.989422804014327A3.989422804014327,3.989422804014327 0 1,1 0,-3.989422804014327A3.989422804014327,3.989422804014327 0 1,1 0,3.989422804014327Z" style="fill: #000000;"></path><path transform="translate(140.73597678916752,396.5956814573285)" d="M0,3.989422804014327A3.989422804014327,3.989422804014327 0 1,1 0,-3.989422804014327A3.989422804014327,3.989422804014327 0 1,1 0,3.989422804014327Z" style="fill: #000000;"></path><path transform="translate(154.33365570599543,352.44003978855187)" d="M0,3.989422804014327A3.989422804014327,3.989422804014327 0 1,1 0,-3.989422804014327A3.989422804014327,3.989422804014327 0 1,1 0,3.989422804014327Z" style="fill: #000000;"></path><path transform="translate(167.93133462282333,374.5178606229402)" d="M0,3.989422804014327A3.989422804014327,3.989422804014327 0 1,1 0,-3.989422804014327A3.989422804014327,3.989422804014327 0 1,1 0,3.989422804014327Z" style="fill: #000000;"></path><path transform="translate(181.52901353965123,352.44003978855187)" d="M0,3.989422804014327A3.989422804014327,3.989422804014327 0 1,1 0,-3.989422804014327A3.989422804014327,3.989422804014327 0 1,1 0,3.989422804014327Z" style="fill: #000000;"></path><path transform="translate(195.12669245647913,219.97311478222215)" d="M0,3.989422804014327A3.989422804014327,3.989422804014327 0 1,1 0,-3.989422804014327A3.989422804014327,3.989422804014327 0 1,1 0,3.989422804014327Z" style="fill: #000000;"></path><path transform="translate(208.72437137330704,330.36221895416355)" d="M0,3.989422804014327A3.989422804014327,3.989422804014327 0 1,1 0,-3.989422804014327A3.989422804014327,3.989422804014327 0 1,1 0,3.989422804014327Z" style="fill: #000000;"></path><path transform="translate(222.32205029013494,396.5956814573285)" d="M0,3.989422804014327A3.989422804014327,3.989422804014327 0 1,1 0,-3.989422804014327A3.989422804014327,3.989422804014327 0 1,1 0,3.989422804014327Z" style="fill: #000000;"></path><path transform="translate(235.91972920696284,374.5178606229402)" d="M0,3.989422804014327A3.989422804014327,3.989422804014327 0 1,1 0,-3.989422804014327A3.989422804014327,3.989422804014327 0 1,1 0,3.989422804014327Z" style="fill: #000000;"></path><path transform="translate(249.51740812379074,352.44003978855187)" d="M0,3.989422804014327A3.989422804014327,3.989422804014327 0 1,1 0,-3.989422804014327A3.989422804014327,3.989422804014327 0 1,1 0,3.989422804014327Z" style="fill: #000000;"></path><path transform="translate(263.1150870406187,308.2843981197753)" d="M0,3.989422804014327A3.989422804014327,3.989422804014327 0 1,1 0,-3.989422804014327A3.989422804014327,3.989422804014327 0 1,1 0,3.989422804014327Z" style="fill: #000000;"></path><path transform="translate(276.71276595744655,219.97311478222215)" d="M0,3.989422804014327A3.989422804014327,3.989422804014327 0 1,1 0,-3.989422804014327A3.989422804014327,3.989422804014327 0 1,1 0,3.989422804014327Z" style="fill: #000000;"></path><path transform="translate(290.3104448742744,396.5956814573285)" d="M0,3.989422804014327A3.989422804014327,3.989422804014327 0 1,1 0,-3.989422804014327A3.989422804014327,3.989422804014327 0 1,1 0,3.989422804014327Z" style="fill: #000000;"></path><path transform="translate(303.90812379110235,308.2843981197753)" d="M0,3.989422804014327A3.989422804014327,3.989422804014327 0 1,1 0,-3.989422804014327A3.989422804014327,3.989422804014327 0 1,1 0,3.989422804014327Z" style="fill: #000000;"></path><path transform="translate(317.50580270793023,242.05093561661042)" d="M0,3.989422804014327A3.989422804014327,3.989422804014327 0 1,1 0,-3.989422804014327A3.989422804014327,3.989422804014327 0 1,1 0,3.989422804014327Z" style="fill: #000000;"></path><path transform="translate(331.10348162475816,308.2843981197753)" d="M0,3.989422804014327A3.989422804014327,3.989422804014327 0 1,1 0,-3.989422804014327A3.989422804014327,3.989422804014327 0 1,1 0,3.989422804014327Z" style="fill: #000000;"></path><path transform="translate(344.70116054158603,219.97311478222215)" d="M0,3.989422804014327A3.989422804014327,3.989422804014327 0 1,1 0,-3.989422804014327A3.989422804014327,3.989422804014327 0 1,1 0,3.989422804014327Z" style="fill: #000000;"></path><path transform="translate(358.2988394584139,308.2843981197753)" d="M0,3.989422804014327A3.989422804014327,3.989422804014327 0 1,1 0,-3.989422804014327A3.989422804014327,3.989422804014327 0 1,1 0,3.989422804014327Z" style="fill: #000000;"></path><path transform="translate(371.89651837524184,175.81747311344557)" d="M0,3.989422804014327A3.989422804014327,3.989422804014327 0 1,1 0,-3.989422804014327A3.989422804014327,3.989422804014327 0 1,1 0,3.989422804014327Z" style="fill: #000000;"></path><path transform="translate(385.49419729206977,264.1287564509987)" d="M0,3.989422804014327A3.989422804014327,3.989422804014327 0 1,1 0,-3.989422804014327A3.989422804014327,3.989422804014327 0 1,1 0,3.989422804014327Z" style="fill: #000000;"></path><path transform="translate(399.0918762088977,242.05093561661042)" d="M0,3.989422804014327A3.989422804014327,3.989422804014327 0 1,1 0,-3.989422804014327A3.989422804014327,3.989422804014327 0 1,1 0,3.989422804014327Z" style="fill: #000000;"></path><path transform="translate(412.6895551257255,286.206577285387)" d="M0,3.989422804014327A3.989422804014327,3.989422804014327 0 1,1 0,-3.989422804014327A3.989422804014327,3.989422804014327 0 1,1 0,3.989422804014327Z" style="fill: #000000;"></path><path transform="translate(426.28723404255345,242.05093561661042)" d="M0,3.989422804014327A3.989422804014327,3.989422804014327 0 1,1 0,-3.989422804014327A3.989422804014327,3.989422804014327 0 1,1 0,3.989422804014327Z" style="fill: #000000;"></path><path transform="translate(439.8849129593814,219.97311478222215)" d="M0,3.989422804014327A3.989422804014327,3.989422804014327 0 1,1 0,-3.989422804014327A3.989422804014327,3.989422804014327 0 1,1 0,3.989422804014327Z" style="fill: #000000;"></path><path transform="translate(453.4825918762092,175.81747311344557)" d="M0,3.989422804014327A3.989422804014327,3.989422804014327 0 1,1 0,-3.989422804014327A3.989422804014327,3.989422804014327 0 1,1 0,3.989422804014327Z" style="fill: #000000;"></path><path transform="translate(467.08027079303713,197.89529394783386)" d="M0,3.989422804014327A3.989422804014327,3.989422804014327 0 1,1 0,-3.989422804014327A3.989422804014327,3.989422804014327 0 1,1 0,3.989422804014327Z" style="fill: #000000;"></path><path transform="translate(480.67794970986506,109.58401061028071)" d="M0,3.989422804014327A3.989422804014327,3.989422804014327 0 1,1 0,-3.989422804014327A3.989422804014327,3.989422804014327 0 1,1 0,3.989422804014327Z" style="fill: #000000;"></path><path transform="translate(494.275628626693,264.1287564509987)" d="M0,3.989422804014327A3.989422804014327,3.989422804014327 0 1,1 0,-3.989422804014327A3.989422804014327,3.989422804014327 0 1,1 0,3.989422804014327Z" style="fill: #000000;"></path><path transform="translate(507.8733075435208,197.89529394783386)" d="M0,3.989422804014327A3.989422804014327,3.989422804014327 0 1,1 0,-3.989422804014327A3.989422804014327,3.989422804014327 0 1,1 0,3.989422804014327Z" style="fill: #000000;"></path><path transform="translate(521.4709864603487,219.97311478222215)" d="M0,3.989422804014327A3.989422804014327,3.989422804014327 0 1,1 0,-3.989422804014327A3.989422804014327,3.989422804014327 0 1,1 0,3.989422804014327Z" style="fill: #000000;"></path><path transform="translate(535.0686653771767,65.42836894150409)" d="M0,3.989422804014327A3.989422804014327,3.989422804014327 0 1,1 0,-3.989422804014327A3.989422804014327,3.989422804014327 0 1,1 0,3.989422804014327Z" style="fill: #000000;"></path><path transform="translate(548.6663442940046,219.97311478222215)" d="M0,3.989422804014327A3.989422804014327,3.989422804014327 0 1,1 0,-3.989422804014327A3.989422804014327,3.989422804014327 0 1,1 0,3.989422804014327Z" style="fill: #000000;"></path><path transform="translate(562.2640232108324,175.81747311344557)" d="M0,3.989422804014327A3.989422804014327,3.989422804014327 0 1,1 0,-3.989422804014327A3.989422804014327,3.989422804014327 0 1,1 0,3.989422804014327Z" style="fill: #000000;"></path><path transform="translate(575.8617021276604,87.50618977589237)" d="M0,3.989422804014327A3.989422804014327,3.989422804014327 0 1,1 0,-3.989422804014327A3.989422804014327,3.989422804014327 0 1,1 0,3.989422804014327Z" style="fill: #000000;"></path><path transform="translate(589.4593810444883,87.50618977589237)" d="M0,3.989422804014327A3.989422804014327,3.989422804014327 0 1,1 0,-3.989422804014327A3.989422804014327,3.989422804014327 0 1,1 0,3.989422804014327Z" style="fill: #000000;"></path><path transform="translate(603.0570599613161,131.661831444669)" d="M0,3.989422804014327A3.989422804014327,3.989422804014327 0 1,1 0,-3.989422804014327A3.989422804014327,3.989422804014327 0 1,1 0,3.989422804014327Z" style="fill: #000000;"></path><path transform="translate(616.654738878144,21.272727272727515)" d="M0,3.989422804014327A3.989422804014327,3.989422804014327 0 1,1 0,-3.989422804014327A3.989422804014327,3.989422804014327 0 1,1 0,3.989422804014327Z" style="fill: #000000;"></path><path transform="translate(630.252417794972,65.42836894150409)" d="M0,3.989422804014327A3.989422804014327,3.989422804014327 0 1,1 0,-3.989422804014327A3.989422804014327,3.989422804014327 0 1,1 0,3.989422804014327Z" style="fill: #000000;"></path><path transform="translate(643.8500967117999,109.58401061028071)" d="M0,3.989422804014327A3.989422804014327,3.989422804014327 0 1,1 0,-3.989422804014327A3.989422804014327,3.989422804014327 0 1,1 0,3.989422804014327Z" style="fill: #000000;"></path><path transform="translate(657.4477756286277,131.661831444669)" d="M0,3.989422804014327A3.989422804014327,3.989422804014327 0 1,1 0,-3.989422804014327A3.989422804014327,3.989422804014327 0 1,1 0,3.989422804014327Z" style="fill: #000000;"></path><path transform="translate(671.0454545454556,308.2843981197753)" d="M0,3.989422804014327A3.989422804014327,3.989422804014327 0 1,1 0,-3.989422804014327A3.989422804014327,3.989422804014327 0 1,1 0,3.989422804014327Z" style="fill: #000000;"></path></g><g id="g35" class="type-area"><path d="M31.954545454544327,319.12694146503213L40.04430379745563,323.63007105862874L48.134062140370034,327.5882681264956L56.22382048328134,330.9727376089292L64.31357882619572,333.75434726936334L72.40333716910703,335.9065761111238L80.49309551202144,337.4101624265179L88.58285385506878,338.25923879625526L96.67261219798009,338.4677257444793L104.76237054089448,338.0759995845247L112.85212888380578,337.1513263687379L120.94188722672018,335.75988969851625L129.03164556963148,333.96981656817195L137.1214039125428,331.84737419468763L145.2111622554572,329.4531002582578L153.3009205983685,326.83960349329317L161.39067894128289,324.05088846909536L169.48043728419418,321.12270617170697L177.5701956271086,318.0833921048032L185.6599539700199,314.98818472705466L193.74971231306722,312.00672085466545L201.83947065598161,309.0624772245901L209.92922899889294,306.02685255402037L218.01898734180733,302.7894366317421L226.10874568471863,299.2868014686405L234.19850402762995,295.5197541020415L242.28826237054435,291.5553155742549L250.37802071345567,287.51417284549404L258.46777905637003,283.54887032228277L266.55753739928133,279.8186938331441L274.64729574219575,276.35646034600796L282.73705408510705,272.95819591467574L290.82681242801834,269.3881598810099L298.9165707710688,265.446069527909L307.0063291139801,261.01922125083576L315.0960874568945,256.12109178313847L323.1858457998058,250.89598776382846L331.2756041427171,245.58689303539424L339.36536248563147,240.48455030209962L347.4551208285428,235.86673684610727L355.5448791714572,231.72126669317956L363.6346375143685,227.80361048976826L371.7243958572829,223.85890283811392L379.81415420019425,219.66331707252164L387.9039125431055,215.0763766872301L395.9936708860199,210.0816002296527L404.0834292289312,204.79450730751188L412.17318757198166,199.43309214498225L420.262945914893,194.2676146241607L428.35270425780425,189.5435600347386L436.44246260071867,184.87642603284036L444.53222094362997,180.01302615103677L452.62197928654433,174.89138005911857L460.7117376294556,169.47457238138486L468.80149597237005,163.78238375060087L476.8912543152814,157.91515434957515L484.98101265819264,152.06009973998033L493.07077100110706,146.47581637668637L501.16052934401836,141.45992874264493L509.2502876869327,137.29285895007368L517.3400460299802,133.51555487834224L525.4298043728915,129.83150208009818L533.5195627158058,126.27934659788193L541.6093210587171,122.89416465498518L549.6990794016315,119.70651898049724L557.7888377445429,116.74093395745275L565.8785960874573,114.01394548827506L573.9683544303685,111.53206197723085L582.0581127732798,109.29022576033455L590.1478711161942,107.27073800511843L598.2376294591055,105.29842394256372L606.3273878020199,103.20289705200966L614.4171461449313,100.92582187478466L622.5069044879785,98.43308160073212L630.5966628308929,95.7130569799356L638.6864211738042,92.77122005311662L646.7761795167187,89.6235828216202L654.86593785963,86.29099555426917L662.9556962025443,82.7951451180342L671.0454545454556,79.15621708132676L671.0454545454556,206.75798397816104L662.9556962025443,199.17513893595745L654.86593785963,192.36278882451418L646.7761795167187,186.3542902812292L638.6864211738042,181.18450124206953L630.5966628308929,176.88744304483913L622.5069044879785,173.49229875987933L614.4171461449313,171.01771149689955L606.3273878020199,169.46523307497532L598.2376294591055,168.81391775294003L590.1478711161942,169.0186011411119L582.0581127732798,170.0812462100928L573.9683544303685,171.97787825086348L565.8785960874573,174.57173131976643L557.7888377445429,177.7371417254363L549.6990794016315,181.36001184474904L541.6093210587171,185.33627155275266L533.5195627158058,189.5698392050954L525.4298043728915,193.97067150348028L517.3400460299802,198.45323864381342L509.2502876869327,202.9355806412573L501.16052934401836,207.48969532280023L493.07077100110706,212.36732696937653L484.98101265819264,217.6068703088556L476.8912543152814,223.24265250727044L468.80149597237005,229.26997270256038L460.7117376294556,235.61274913946858L452.62197928654433,242.10802468387746L444.53222094362997,248.51228265162328L436.44246260071867,254.52531035008374L428.35270425780425,259.8218301321229L420.262945914893,264.27483528093774L412.17318757198166,268.32848337311344L404.0834292289312,272.2496986912213L395.9936708860199,276.2870213376038L387.9039125431055,280.6367257566848L379.81415420019425,285.392611776433L371.7243958572829,290.51647816451793L363.6346375143685,295.84612863542435L355.5448791714572,301.1360167437069L347.4551208285428,306.10955731185186L339.36536248563147,310.5540950501899L331.2756041427171,314.5972850898186L323.1858457998058,318.4732384099962L315.0960874568945,322.41404116115615L307.0063291139801,326.6040206319683L298.9165707710688,331.1288269076136L290.82681242801834,335.9432801676144L282.73705408510705,340.87602025360343L274.64729574219575,345.66810789466007L266.55753739928133,350.0251458788164L258.46777905637003,353.730212786394L250.37802071345567,356.9867925275701L242.28826237054435,359.97481745455815L234.19850402762995,362.8440854087368L226.10874568471863,365.71253678516626L218.01898734180733,368.6444460610054L209.92922899889294,371.637873708427L201.83947065598161,374.6266451731703L193.74971231306722,377.4976036788684L185.6599539700199,380.11940137756204L177.5701956271086,382.4099345198912L169.48043728419418,384.5235383407612L161.39067894128289,386.5230555126994L153.3009205983685,388.44812191974205L145.2111622554572,390.3457889282919L137.1214039125428,392.27136148801503L129.03164556963148,394.28874871368174L120.94188722672018,396.46978866584834L112.85212888380578,398.89204894185707L104.76237054089448,401.6349569163847L96.67261219798009,404.77460045568023L88.58285385506878,408.37147568751476L80.49309551202144,412.45873298334016L72.40333716910703,417.04512479112145L64.31357882619572,422.1196156153854L56.22382048328134,427.6577756722586L48.134062140370034,433.6279158888844L40.04430379745563,439.99573595251775L31.954545454544327,446.72727272727275Z" style="fill: #333333; fill-opacity: 0.2; stroke: rgba(0, 0, 0, 0);"></path></g><g id="g36" class="type-line"><path d="M31.954545454544327,382.92710709615244L40.04430379745563,381.8129035055733L48.134062140370034,380.60809200769006L56.22382048328134,379.31525664059404L64.31357882619572,377.9369814423744L72.40333716910703,376.47585045112254L80.49309551202144,374.93444770492897L88.58285385506878,373.31535724188507L96.67261219798009,371.6211631000797L104.76237054089448,369.85547825045455L112.85212888380578,368.02168765529757L120.94188722672018,366.11483918218227L129.03164556963148,364.12928264092693L137.1214039125428,362.0593678413512L145.2111622554572,359.8994445932748L153.3009205983685,357.64386270651755L161.39067894128289,355.28697199089737L169.48043728419418,352.82312225623417L177.5701956271086,350.24666331234727L185.6599539700199,347.5537930523083L193.74971231306722,344.7521622667669L201.83947065598161,341.8445611988802L209.92922899889294,338.8323631312236L218.01898734180733,335.71694134637374L226.10874568471863,332.4996691269035L234.19850402762995,329.1819197553892L242.28826237054435,325.76506651440644L250.37802071345567,322.2504826865319L258.46777905637003,318.63954155433845L266.55753739928133,314.9219198559804L274.64729574219575,311.01228412033413L282.73705408510705,306.91710808413956L290.82681242801834,302.665720024312L298.9165707710688,298.2874482177613L307.0063291139801,293.811620941402L315.0960874568945,289.26756647214745L323.1858457998058,284.6846130869122L331.2756041427171,280.0920890626063L339.36536248563147,275.5193226761447L347.4551208285428,270.9881470789797L355.5448791714572,266.42864171844315L363.6346375143685,261.8248695625963L371.7243958572829,257.18769050131596L379.81415420019425,252.5279644244772L387.9039125431055,247.85655122195746L395.9936708860199,243.18431078362823L404.0834292289312,238.5221029993666L412.17318757198166,233.88078775904785L420.262945914893,229.27122495254923L428.35270425780425,224.68269508343013L436.44246260071867,219.70086819146226L444.53222094362997,214.2626544013296L452.62197928654433,208.49970237149802L460.7117376294556,202.54366076042612L468.80149597237005,196.52617822657962L476.8912543152814,190.57890342842322L484.98101265819264,184.8334850244191L493.07077100110706,179.42157167303114L501.16052934401836,174.47481203272102L509.2502876869327,170.11421979566438L517.3400460299802,165.98439676107844L525.4298043728915,161.90108679178925L533.5195627158058,157.92459290148756L541.6093210587171,154.11521810386887L549.6990794016315,150.53326541262422L557.7888377445429,147.2390378414445L565.8785960874573,144.29283840402073L573.9683544303685,141.75497011404607L582.0581127732798,139.68573598521365L590.1478711161942,138.14466957311512L598.2376294591055,137.05617084775184L606.3273878020199,136.33406506349252L614.4171461449313,135.9717666858432L622.5069044879785,135.96269018030574L630.5966628308929,136.30025001238624L638.6864211738042,136.97786064759308L646.7761795167187,137.98893655142578L654.86593785963,139.32689218939055L662.9556962025443,140.98514202699567L671.0454545454556,142.95710052974297" style="fill: rgba(0, 0, 0, 0); stroke: #000000; stroke-width: 2px;"></path></g></g></g></g></svg>